<?xml version="1.0" encoding="UTF-8"?>
<svg width="577.91" height="297.75" fill="#000000" stroke-linecap="round" stroke-linejoin="round" version="1.1" viewBox="-191.04 -84.73 577.91 297.75" xmlns="http://www.w3.org/2000/svg">
 <g transform="translate(-191.04 -1)">
  <path d="m7.5-35-7.5 7.5 57.5 62.5 7.5-7.5z"/>
  <path d="m69.3 46.8-11.8-11.8 5-5q-7.681-1.687-7.1 0.5l0.95 3.35-7.05 7.05 13 12.9z"/>
  <path d="m17.5 52.5 7.5 7.5 7.5-7.5-7.5-7.5z"/>
  <path d="m112.9-34.975-10 10v20h-35l-10 10 29.95 29.95 7.5-7.5-22.45-22.45h30l10-10z"/>
  <path d="m112.9-19.325v-15.65l-10 10q-9.4-17.75-21.2-6.85 12.25-2.15 14.85 15.5l6.35-6.3v8.1q4.8-9.5 10-4.8z"/>
  <path d="m90.347 32.475 5-5 10 10 7.15-7.15-11.3-11.2-7 7.1-1 1q-3.183-1.742-3.85 0-0.916 1.293 0 6.25z"/>
  <path d="m178.46 35 10-10v-60h-40l-10 10h40v50h-30l-10 10z"/>
  <path d="m153.01 25h-4.55l-8.8 8.8-10-10-7.15 7.15 11.3 11.2 7.05-7.15h6.3q-3.7-5 5.85-10z"/>
  <path d="m163.08 62.15-8.8 8.8 1.2 1.2 20-20h-30l-10 10z"/>
  <path d="m215.89-35-10 10h37.55l-9.95 10h17.4l10-10h-15l10-10z"/>
  <path d="m208.39-5-10 10h50l10-10z"/>
  <path d="m285.03-35-10 10v60l10-10z"/>
  <path d="m275.03-13.8q5-12.14 10-11.2v-10l-17.5 17.5 1.2 1.2 6.3-6.3z"/>
  <path d="m285.03 13.8q-5 12.14-10 11.2v10l17.5-17.5-1.2-1.2-6.3 6.3z"/>
  <path d="m272.53-52.5 7.5 7.5 7.5-7.5-7.5-7.5z"/>
  <path d="m319.76-35-7.5 7.5 57.5 62.5 7.5-7.5z"/>
  <path d="m317.26-32.5-5 5-10-10-7.15 7.15 11.3 11.2 7-7.1 1-1q3.183 1.742 3.85 0 0.916-1.293 0-6.25z"/>
  <path d="m342.26 45-10 10v25l10-10z"/>
  <path d="m374.07-25h34.95l10-10h-50l-10 10 25 25v35l10-10v-30.05z"/>
  <path d="m416.72-35h-13.35q4.7 5.2-4.8 10h10.45l16.35-16.35q-3.25-11.35-12.55-12.3-0.8-0.1-1.7-0.1-0.6 0-1.2 0.05 6.7 3.4 6.8 18.7z"/>
  <path d="m387.72 51.4 16.3-16.3v-22.45l-10 10v-5.15q-5 6.1-10 2.5v15l10-10v17.7l-7.5 7.5z"/>
  <path d="m371.94-65 1.15 1.25q6.55-11.7 14.4-12.25 7.8-0.5 17.45 9.75l7.5-7.5q-6.55-12.05-18.7-9.55-12.25 2.5-21.8 18.3z"/>
  <path d="m412.44 62.65-1.15-1.25q-6.55 11.7-14.4 12.25-7.8 0.5-17.45-9.75l-7.5 7.5q6.55 12.05 18.7 9.55 12.25-2.5 21.8-18.3z"/>
  <path d="m476.22 5 7.5-7.5-32.5-32.5-7.5 7.5 32.5 32.5m-17.5-10-7.5 7.5 32.5 32.5 7.5-7.5z"/>
  <path d="m444.92-26.3q4.2 0.65 6.3-2.7 0.8-1 0-6l-6.3 6.3v-19.95l-10 10.1v22.35z"/>
  <path d="m476.22-27.5 20 20 7.5-7.5-20-20z"/>
  <path d="m459.97-52.5 7.5 7.5 7.5-7.5-7.5-7.5z"/>
  <path d="m522.96-25h34.95l10-10h-50l-10 10 25 25v35l10-10v-30.05z"/>
  <path d="m567.91-15h0.1l9.9-10h-19.9l10-10h-12.65q5.5 3.45-5.3 10h5.5l-9.95 10h19.9l-7.5 7.5 1.2 1.2z"/>
  <path d="m532.91 32.6-7.5 7.55q16.8-0.55 27.5 12.45-4.6-18.35-18.85-18.8l8.85-8.8v-5q-4.75 4.55-10 1.5z"/>
  <path d="m535.41 70.1 7.5 7.5 7.5-7.5-7.5-7.5z"/>
  <path d="m15 105-7.5 7.5 57.5 62.5 7.5-7.5z"/>
  <path d="m13.9 108.05q-3.28 1.825-6.4 4.45l-7.5 7.5 1.2 1.2 7.5-7.5q4.106 1.688 4.55 0.35 0.6-1.45 0.65-6z"/>
  <path d="m109.67 144.62 10-10-29.85-29.85-7.5 7.5 22.35 22.35h-20l-15 15 25.6 25.6 7.5-7.5-23.1-23.1z"/>
  <path d="m82.316 112.28h-15.05l-10 10h17.45l8.75-8.8q6.9 0.2 3.8-6.15z"/>
  <path d="m107.07 187.02-11.8-11.8 5-5q-7.681-1.687-7.1 0.5l0.95 3.35-7.05 7.05 13 12.9z"/>
  <path d="m98.466 214.02 10-10h-30l-10 10z"/>
  <path d="m157.14 94.5v27.6l-7.5 7.5 1.2 1.2 16.3-16.3v-30z"/>
  <path d="m133.39 135-10 10h50l10-10z"/>
  <path d="m203.39 105-10 10v60l10-10z"/>
  <path d="m203.44 107.3h15l10-10h-17.4l-17.65 17.7v7.3q5.4-4.35 10-2.75v-12.25z"/>
  <path d="m205.19 186.8-11.8-11.8 10-10v-5q-5.188 7.964-10 5v7.7l-8.2 8.2 13 12.9z"/>
  <path d="m250.12 104.98-7.5 7.5 22.55 22.55h-14.4l-17.6 17.65v22.35h40l10-10h-40v-20h30l8.5-8.5z"/>
  <path d="m268.18 94.975 10-10h-30l-10 10z"/>
 </g>
</svg>
