<?xml version="1.0" ?>
<svg viewBox="-9.5367431640625e-7 -60 624.4970703125 139.9795684814453" stroke-linejoin="round" stroke-linecap="round" fill="black" xmlns="http://www.w3.org/2000/svg"><g><g><g><g><path d="M 36.79999923706055 8.1 l 7.45 -7.5 27.05 34.4 7.5 -7.5 -27.8 -36 -7.75 7.8 -26.95 -34.3 -7.5 7.5 28 35.6 z"></path><path d="M 9.99999923706055 -26.3 q 4.2 0.65 6.3 -2.7 q 0.8 -1 0 -6 l -6.3 6.3 l 0 -19.95 l -10 10.1 l 0 22.35 l 10 -10.1 z"></path><path d="M 73.79999923706055 32.5 l 5 -5 l 10 10 l 7.15 -7.15 l -11.3 -11.2 l -7 7.1 l -1 1 q -3.183 -1.742 -3.85 0 q -0.916 1.293 0 6.25 z"></path><path d="M 28.799999237060547 52.5 l 7.5 7.5 l 7.5 -7.5 l -7.5 -7.5 l -7.5 7.5 z"></path></g><g><path d="M 125.88438415527344 -25 l 10 -10 l -50 0 l -10 10 l 0 30 l 30 0 l 0 30 l 10 -10 l 0 -30 l -30 0 l 0 -20 l 40 0 z"></path><g><path d="M 105.88438415527344 35 l 15 0 l 0 15 l 10 -10 l 0 -15 l -15 0 l 0 -10 q -3.85 7.75 -10 5 l 0 15 z"></path></g><path d="M 126.13438415527344 61.25 l -1.15 -1.25 q -6.55 11.7 -14.4 12.25 q -7.8 0.5 -17.45 -9.75 l -7.5 7.5 q 6.55 12.05 18.7 9.55 q 12.25 -2.5 21.8 -18.3 z"></path></g><g><path d="M 162.26250457763672 -35 l -7.5 7.5 57.5 62.5 7.5 -7.5 -57.5 -62.5 z"></path><path d="M 155.9625045776367 -26.3 q 4.2 0.65 6.3 -2.7 q 0.8 -1 0 -6 l -6.3 6.3 l 0 -19.95 l -10 10.1 l 0 22.35 l 10 -10.1 z"></path><path d="M 214.76250457763672 32.5 l 5 -5 l 10 10 l 7.15 -7.15 l -11.3 -11.2 l -7 7.1 l -1 1 q -3.183 -1.742 -3.85 0 q -0.916 1.293 0 6.25 z"></path></g><g><path d="M 270.28437423706055 4.625 l 10 -10 l -29.85 -29.85 l -7.5 7.5 l 22.35 22.35 l -20 0 l -15 15 l 25.6 25.6 l 7.5 -7.5 l -23.1 -23.1 l 30 0 z"></path><g><path d="M 230.43437423706055 -25.224998474121094 l 15 0 q 7 2.95 7.6 0 q 1.65 -2.7 -2.6 -10 l -10 0 l 0 -15 l -10 10 l 0 15 z"></path></g><g><path d="M 263.38437423706057 27.724998474121094 l 12.65 0 l -7.5 7.5 l 1.2 1.2 l 18.7 -18.7 l -17.45 0 l -8.75 8.8 q -6.9 -0.2 -3.8 6.15 l 4.95 -4.95 z"></path></g><path d="M 239.109375 65.15455627441406 l 1.15 1.25 q 6.55 -11.7 14.4 -12.25 q 7.8 -0.5 17.45 9.75 l 7.5 -7.5 q -6.55 -12.05 -18.7 -9.55 q -12.25 2.5 -21.8 18.3 z"></path></g><g><path d="M 281.0374870300293 -35 l -7.5 7.5 57.5 62.5 7.5 -7.5 -57.5 -62.5 z"></path></g><g><path d="M 386.4281120300293 -34.975 l -10 10 l 0 20 l -35 0 l -10 10 l 29.95 29.95 l 7.5 -7.5 l -22.45 -22.45 l 30 0 l 10 -10 l 0 -30 z"></path><g><path d="M 368.8781120300293 27.474998474121094 q -6.8 0.5 -7.5 7.5 l 15 15 l 15 -15 l -1.2 -1.2 l -7.5 7.5 l -13.8 -13.8 z"></path></g><path d="M 381.653112411499 61.224998474121094 l -1.15 -1.25 q -6.55 11.7 -14.4 12.25 q -7.8 0.5 -17.45 -9.75 l -7.5 7.5 q 6.55 12.05 18.7 9.55 q 12.25 -2.5 21.8 -18.3 z"></path></g><g><path d="M 436.4062614440918 35 l 10 -10 l 0 -60 l -40 0 l -10 10 l 40 0 l 0 60 z"></path><path d="M 413.9062614440918 -52.5 l 7.5 7.5 l 7.5 -7.5 l -7.5 -7.5 l -7.5 7.5 z"></path><path d="M 413.9062614440918 52.5 l 7.5 7.5 l 7.5 -7.5 l -7.5 -7.5 l -7.5 7.5 z"></path></g><g><path d="M 500.5468864440918 35 l 7.5 -7.5 -26.9 -26.9 7.45 -7.55 -28.05 -28.05 -7.5 7.5 26.9 26.9 -7.5 7.5 28.1 28.1 z"></path><path d="M 503.0468864440918 32.5 l 5 -5 l 10 10 l 7.15 -7.15 l -11.3 -11.2 l -7 7.1 l -1 1 q -3.183 -1.742 -3.85 0 q -0.916 1.293 0 6.25 z"></path></g><g><path d="M 538.9874687194824 -35 l -10 10 l 0 36.3 l 10 -10.05 l 0 33.75 l 10 -10 l 0 -36.15 l -10 10 l 0 -23.85 l 30 0 l 10 -10 l -40 0 z"></path><g><path d="M 563.3374687194824 -35 l 15.65 0 l -10 10 q 17.75 9.4 6.85 21.2 q 2.15 -12.25 -15.5 -14.85 l 6.3 -6.35 l -8.1 0 q 9.5 -4.8 4.8 -10 z"></path></g><g><path d="M 538.9874687194824 20 l 0 15 l 15 0 l 10 -10 l -15 0 l 0 -10 q -3.874 7.753 -10 5 z"></path></g><path d="M 546.9859409332275 -52.5 l 7.5 7.5 l 7.5 -7.5 l -7.5 -7.5 l -7.5 7.5 z"></path><path d="M 564.4859409332275 55 l 10 -10 l -30 0 l -10 10 l 30 0 z"></path></g><g><path d="M 614.4970512390137 35 l 10 -10 l 0 -60 l -10 10 l 0 50 l -30 0 l -10 10 l 40 0 z"></path><path d="M 612.3526077270508 56.60294055938721 q -0.75 -5.3 -5.4 -8.4 q -4.9 -3.3 -12.95 -3.2 l -7.5 7.5 q 14.9 0.4 18.6 8.55 q 3.75 8.2 -7.45 16.9 l 1.25 1.15 q 7.35 -5.2 10.9 -11.4 q 3.3 -5.85 2.55 -11.1 z"></path></g></g></g></g></svg>