<?xml version="1.0" ?>
<svg viewBox="-191.043701171875 -84.72955322265625 960 298.7545471191406" stroke-linejoin="round" stroke-linecap="round" fill="black" xmlns="http://www.w3.org/2000/svg"><g><g><path d="M -1024 -35 h 2048 m -2048 35 h 2048 m -2048 35 h 2048 m -1024 -35 v 0" stroke="#ccc" stroke-width="1"></path><g><g><path d="M 7.5 -35 l -7.5 7.5 57.5 62.5 7.5 -7.5 -57.5 -62.5 z"></path><path d="M 69.3 46.8 l -11.8 -11.8 l 5 -5 q -7.681 -1.687 -7.1 0.5 l 0.95 3.35 l -7.05 7.05 l 13 12.9 z"></path><path d="M 17.5 52.5 l 7.5 7.5 l 7.5 -7.5 l -7.5 -7.5 l -7.5 7.5 z"></path></g><g><path d="M 112.89688110351562 -34.975 l -10 10 l 0 20 l -35 0 l -10 10 l 29.95 29.95 l 7.5 -7.5 l -22.45 -22.45 l 30 0 l 10 -10 l 0 -30 z"></path><g><path d="M 112.89688110351562 -19.324998474121095 l 0 -15.65 l -10 10 q -9.4 -17.75 -21.2 -6.85 q 12.25 -2.15 14.85 15.5 l 6.35 -6.3 l 0 8.1 q 4.8 -9.5 10 -4.8 z"></path></g><g><path d="M 90.34688110351563 32.474998474121094 l 5 -5 l 10 10 l 7.15 -7.15 l -11.3 -11.2 l -7 7.1 l -1 1 q -3.183 -1.742 -3.85 0 q -0.916 1.293 0 6.25 z"></path></g></g><g><path d="M 178.45625686645508 35 l 10 -10 l 0 -60 l -40 0 l -10 10 l 40 0 l 0 50 l -30 0 l -10 10 l 40 0 z"></path><g><path d="M 153.0062568664551 25 l -4.55 0 l -8.8 8.8 l -10 -10 l -7.15 7.15 l 11.3 11.2 l 7.05 -7.15 l 6.3 0 q -3.7 -5 5.85 -10 z"></path></g><path d="M 163.0812587738037 62.150001525878906 l -8.8 8.8 l 1.2 1.2 l 20 -20 l -30 0 l -10 10 l 27.6 0 z"></path></g><g><path d="M 215.89063262939453 -35 l -10 10 l 37.55 0 l -9.95 10 l 17.4 0 l 10 -10 l -15 0 l 10 -10 l -40 0 z"></path><path d="M 208.39063262939453 -5 l -10 10 l 50 0 l 10 -10 l -50 0 z"></path></g><g><path d="M 285.0312805175781 -35 l -10 10 l 0 60 l 10 -10 l 0 -60 z"></path><g><path d="M 275.0312805175781 -13.8 q 5 -12.14 10 -11.2 l 0 -10 l -17.5 17.5 l 1.2 1.2 l 6.3 -6.3 l 0 8.8 z"></path></g><g><path d="M 285.0312805175781 13.8 q -5 12.14 -10 11.2 l 0 10 l 17.5 -17.5 l -1.2 -1.2 l -6.3 6.3 l 0 -8.8 z"></path></g><path d="M 272.5312805175781 -52.5 l 7.5 7.5 l 7.5 -7.5 l -7.5 -7.5 l -7.5 7.5 z"></path></g><g><path d="M 319.75940704345703 -35 l -7.5 7.5 57.5 62.5 7.5 -7.5 -57.5 -62.5 z"></path><path d="M 317.25940704345703 -32.5 l -5 5 l -10 -10 l -7.15 7.15 l 11.3 11.2 l 7 -7.1 l 1 -1 q 3.183 1.742 3.85 0 q 0.916 -1.293 0 -6.25 z"></path><path d="M 342.25940704345703 45 l -10 10 l 0 25 l 10 -10 l 0 -25 z"></path></g><g><path d="M 374.0687683105469 -25 l 34.95 0 l 10 -10 l -50 0 l -10 10 l 25 25 l 0 35 l 10 -10 l 0 -30.05 l -19.95 -19.95 z"></path><g><path d="M 416.71876831054686 -35 l -13.35 0 q 4.7 5.2 -4.8 10 l 10.45 0 l 16.35 -16.35 q -3.25 -11.35 -12.55 -12.3 q -0.8 -0.1 -1.7 -0.1 q -0.6 0 -1.2 0.05 q 6.7 3.4 6.8 18.7 z"></path></g><g><path d="M 387.71876831054686 51.4 l 16.3 -16.3 l 0 -22.45 l -10 10 l 0 -5.15 q -5 6.1 -10 2.5 l 0 15 l 10 -10 l 0 17.7 l -7.5 7.5 l 1.2 1.2 z"></path></g><path d="M 371.9437675476074 -64.99999618530273 l 1.15 1.25 q 6.55 -11.7 14.4 -12.25 q 7.8 -0.5 17.45 9.75 l 7.5 -7.5 q -6.55 -12.05 -18.7 -9.55 q -12.25 2.5 -21.8 18.3 z"></path><path d="M 412.4437675476074 62.65000915527344 l -1.15 -1.25 q -6.55 11.7 -14.4 12.25 q -7.8 0.5 -17.45 -9.75 l -7.5 7.5 q 6.55 12.05 18.7 9.55 q 12.25 -2.5 21.8 -18.3 z"></path></g><g><path d="M 476.2219657897949 5 l 7.5 -7.5 -32.5 -32.5 -7.5 7.5 32.5 32.5 m -17.5 -10 l -7.5 7.5 32.5 32.5 7.5 -7.5 -32.5 -32.5 z"></path><path d="M 444.9219657897949 -26.3 q 4.2 0.65 6.3 -2.7 q 0.8 -1 0 -6 l -6.3 6.3 l 0 -19.95 l -10 10.1 l 0 22.35 l 10 -10.1 z"></path><path d="M 476.2219657897949 -27.5 l 20 20 l 7.5 -7.5 l -20 -20 l -7.5 7.5 z"></path><path d="M 459.9719657897949 -52.5 l 7.5 7.5 l 7.5 -7.5 l -7.5 -7.5 l -7.5 7.5 z"></path></g><g><path d="M 522.9625671386718 -25 l 34.95 0 l 10 -10 l -50 0 l -10 10 l 25 25 l 0 35 l 10 -10 l 0 -30.05 l -19.95 -19.95 z"></path><g><path d="M 567.9125671386719 -15 l 0.1 0 l 9.9 -10 l -19.9 0 l 10 -10 l -12.65 0 q 5.5 3.45 -5.3 10 l 5.5 0 l -9.95 10 l 19.9 0 l -7.5 7.5 l 1.2 1.2 l 8.7 -8.7 z"></path></g><g><path d="M 532.9125671386719 32.6 l -7.5 7.55 q 16.8 -0.55 27.5 12.45 q -4.6 -18.35 -18.85 -18.8 l 8.85 -8.8 l 0 -5 q -4.75 4.55 -10 1.5 l 0 11.1 z"></path></g><path d="M 535.4125671386719 70.0999984741211 l 7.5 7.5 l 7.5 -7.5 l -7.5 -7.5 l -7.5 7.5 z"></path></g></g></g><g><path d="M -1024 105 h 2048 m -2048 35 h 2048 m -2048 35 h 2048 m -1024 -35 v 0" stroke="#ccc" stroke-width="1"></path><g><g><path d="M 15 105 l -7.5 7.5 57.5 62.5 7.5 -7.5 -57.5 -62.5 z"></path><path d="M 13.899999999999999 108.05 q -3.28 1.825 -6.4 4.45 l -7.5 7.5 l 1.2 1.2 l 7.5 -7.5 q 4.106 1.688 4.55 0.35 q 0.6 -1.45 0.65 -6 z"></path></g><g><path d="M 109.6656265258789 144.625 l 10 -10 l -29.85 -29.85 l -7.5 7.5 l 22.35 22.35 l -20 0 l -15 15 l 25.6 25.6 l 7.5 -7.5 l -23.1 -23.1 l 30 0 z"></path><g><path d="M 82.31562652587891 112.2750015258789 l -15.05 0 l -10 10 l 17.45 0 l 8.75 -8.8 q 6.9 0.2 3.8 -6.15 l -4.95 4.95 z"></path></g><g><path d="M 107.06562652587891 187.0249984741211 l -11.8 -11.8 l 5 -5 q -7.681 -1.687 -7.1 0.5 l 0.95 3.35 l -7.05 7.05 l 13 12.9 z"></path></g><path d="M 98.46562576293945 214.02499389648438 l 10 -10 l -30 0 l -10 10 l 30 0 z"></path></g><g><path d="M 157.14374923706055 94.5 l 0 27.6 l -7.5 7.5 l 1.2 1.2 l 16.3 -16.3 l 0 -30 l -10 10 z"></path><path d="M 133.39374923706055 135 l -10 10 l 50 0 l 10 -10 l -50 0 z"></path></g><g><path d="M 203.39062786102295 105 l -10 10 l 0 60 l 10 -10 l 0 -60 z"></path><g><path d="M 203.44062786102296 107.3 l 15 0 l 10 -10 l -17.4 0 l -17.65 17.7 l 0 7.3 q 5.4 -4.35 10 -2.75 l 0 -12.25 z"></path></g><g><path d="M 205.19062786102296 186.8 l -11.8 -11.8 l 10 -10 l 0 -5 q -5.188 7.964 -10 5 l 0 7.7 l -8.2 8.2 l 13 12.9 l 7 -7 z"></path></g></g><g><path d="M 250.1250030517578 104.975 l -7.5 7.5 l 22.55 22.55 l -14.4 0 l -17.6 17.65 l 0 22.35 l 40 0 l 10 -10 l -40 0 l 0 -20 l 30 0 l 8.5 -8.5 l -31.55 -31.55 z"></path><path d="M 268.1750030517578 94.9749984741211 l 10 -10 l -30 0 l -10 10 l 30 0 z"></path></g></g></g></g></svg>