<?xml version="1.0" ?>
<svg viewBox="0.000001430511474609375 -68.72500610351562 577.00634765625 158.75001525878906" stroke-linejoin="round" stroke-linecap="round" fill="black" xmlns="http://www.w3.org/2000/svg"><g><g><g><g><path d="M 24.650001525878906 -35 l -7.5 7.5 57.5 62.5 7.5 -7.5 -57.5 -62.5 z"></path><path d="M 22.150001525878906 -32.5 l -5 5 l -10 -10 l -7.15 7.15 l 11.3 11.2 l 7 -7.1 l 1 -1 q 3.183 1.742 3.85 0 q 0.916 -1.293 0 -6.25 z"></path><path d="M 77.1500015258789 32.5 l 5 -5 l 10 10 l 7.15 -7.15 l -11.3 -11.2 l -7 7.1 l -1 1 q -3.183 -1.742 -3.85 0 q -0.916 1.293 0 6.25 z"></path><path d="M 54.650001525878906 -27.5 l 20 20 l 7.5 -7.5 l -20 -20 l -7.5 7.5 z"></path><path d="M 34.650001525878906 52.5 l 7.5 7.5 l 7.5 -7.5 l -7.5 -7.5 l -7.5 7.5 z"></path></g><g><path d="M 110.55313148498536 -34.925 l -10 10 l 0 40 l 9.55 -9.55 l 20.65 29.4 l 7.5 -7.5 l -21.6 -30.85 l -6.1 6.1 l 0 -37.6 z"></path><g><path d="M 129.60313148498534 27.424999237060547 q -1.328 4.078 0.8 6.7 l -0.8 -0.35 q -19.05 -9.15 -23.7 6.2 q 7.65 -9.4 17.35 2.45 l 15 -15 q -4.648 -1.323 -8.65 0 z"></path></g></g><g><path d="M 148.21876525878906 35 l 10 -10 l 0 -30 l -30 -30 l -7.5 7.5 l 27.5 27.5 l 0 35 z"></path><path d="M 149.46876525878906 -45 l 10 -10 l -30 0 l -10 10 l 30 0 z"></path><path d="M 129.46876621246338 55 l 0 25 l 20 -20 l -1.2 -1.2 l -8.8 8.8 l 0 -22.6 l -10 10 z"></path></g><g><path d="M 227.30939025878905 25 l -34.95 0 l -10 10 l 50 0 l 10 -10 l -25 -25 l 0 -35 l -10 10 l 0 30.05 l 19.95 19.95 z"></path><g><path d="M 204.75939025878907 15 l -22.4 0 l -17.5 17.5 l 1.2 1.2 l 8.7 -8.7 l 17.6 0 l -10 10 l 12.65 0 q -5.5 -3.45 5.3 -10 l -5.5 0 l 9.95 -10 z"></path></g><path d="M 213.60939025878906 55 l 10 -10 l -30 0 l -10 10 l 30 0 z"></path></g><g><path d="M 231.5000228881836 -35 l -7.5 7.5 57.5 62.5 7.5 -7.5 -57.5 -62.5 z"></path></g><g><path d="M 310.6406478881836 -35 l -10 10 l 0 35 l 19.95 0 l -24.95 25 l 40 0 l 10 -10 l -37.6 0 l 24.85 -25 l -22.25 0 l 0 -35 z"></path><g><path d="M 343.3406478881836 25 l -13.35 0 q 4.7 5.2 -4.8 10 l 10.45 0 l 16.35 -16.35 q -3.25 -11.35 -12.55 -12.3 q -0.8 -0.1 -1.7 -0.1 q -0.6 0 -1.2 0.05 q 6.7 3.4 6.8 18.7 z"></path></g><path d="M 303.56564712524414 63.72955322265625 l 1.15 1.25 q 6.55 -11.7 14.4 -12.25 q 7.8 -0.5 17.45 9.75 l 7.5 -7.5 q -6.55 -12.05 -18.7 -9.55 q -12.25 2.5 -21.8 18.3 z"></path></g><g><path d="M 336.9062843322754 -35 l -7.5 7.5 57.5 62.5 7.5 -7.5 -57.5 -62.5 z"></path><path d="M 330.6062843322754 -26.3 q 4.2 0.65 6.3 -2.7 q 0.8 -1 0 -6 l -6.3 6.3 l 0 -19.95 l -10 10.1 l 0 22.35 l 10 -10.1 z"></path><path d="M 389.4062843322754 32.5 l 5 -5 l 10 10 l 7.15 -7.15 l -11.3 -11.2 l -7 7.1 l -1 1 q -3.183 -1.742 -3.85 0 q -0.916 1.293 0 6.25 z"></path></g><g><path d="M 438.5219184875488 -35.025 l -7.5 7.5 l 22.55 22.55 l -14.4 0 l -17.6 17.65 l 0 22.35 l 40 0 l 10 -10 l -40 0 l 0 -20 l 30 0 l 8.5 -8.5 l -31.55 -31.55 z"></path><g><path d="M 441.12191848754884 -25.025001525878906 q 1.65 -2.7 -2.6 -10 l -12.6 0 l 7.5 -7.5 l -1.2 -1.2 l -18.7 18.7 l 20 0 q 7 2.95 7.6 0 z"></path></g><g><path d="M 463.92191848754885 25.025001525878906 q 0.465 4.718 -7.9 10 l 5.55 0 l 17.6 -17.6 l 0 -15 l -10 10 l 0 12.6 l -5.25 0 z"></path></g><path d="M 438.84692001342773 -61.22500228881836 l 7.5 7.5 l 7.5 -7.5 l -7.5 -7.5 l -7.5 7.5 z"></path><path d="M 456.34692001342773 55.02500915527344 l 10 -10 l -30 0 l -10 10 l 30 0 z"></path></g><g><path d="M 567.1063125610351 35.025 l 9.9 -9.95 l -47.35 -58.35 l -0.05 0 l -1.4 -1.75 l -7.5 7.5 l 42.7 52.55 l -52.05 0 l -10 10 l 65.75 0 z"></path><g><path d="M 501.35631256103517 35.02500534057617 l -12.65 0 l 7.5 -7.5 l -1.2 -1.2 l -18.7 18.7 l 17.45 0 l 9.95 -10 l 7.6 0 q -4.95 -4.2 6.25 -10 l -6.25 0 l -9.95 10 z"></path></g><path d="M 519.1563110351562 -52.52499771118164 l 7.5 7.5 l 7.5 -7.5 l -7.5 -7.5 l -7.5 7.5 z"></path><path d="M 516.6563119888306 65.02500534057617 l 0 25 l 20 -20 l -1.2 -1.2 l -8.8 8.8 l 0 -22.6 l -10 10 z"></path></g></g></g></g></svg>