<?xml version="1.0" encoding="UTF-8"?>
<svg width="508.78" height="149.13" fill="#000000" stroke-linecap="round" stroke-linejoin="round" version="1.1" viewBox="-225.61 -56.025 508.78 149.13" xmlns="http://www.w3.org/2000/svg">
 <path d="m-225.61-1 7.5 7.5 7.5-7.5-7.5-7.5z"/>
 <path d="m-161.47-36-10 10v30l30 30 7.5-7.5-27.5-27.5z"/>
 <path d="m-203.97-8.5 1.2 1.2 8.7-8.7h15.05l7.6-7.6-0.05 5.05q4.6-6.3 10-4v-13.45l-9.95 10h-15.05z"/>
 <path d="m-121.47 24h-15q-7-2.95-7.6 0-1.65 2.7 2.6 10h10v15l10-10z"/>
 <path d="m-175.58 81.5q0.75 5.3 5.4 8.4 4.9 3.3 12.95 3.2l7.5-7.5q-14.9-0.4-18.6-8.55-3.75-8.2 7.45-16.9l-1.25-1.15q-7.35 5.2-10.9 11.4-3.3 5.85-2.55 11.1z"/>
 <path d="m-145.92-36-7.5 7.5 57.5 62.5 7.5-7.5z"/>
 <path d="m-88.42 26.5h15.05l10-10h-17.45l-8.75 8.8q-6.9-0.2-3.8 6.15z"/>
 <path d="m-46.68-36-10 10v35h19.95l-24.95 25h40l10-10h-37.6l24.85-25h-22.25z"/>
 <path d="m-16.43 45.25-1.15-1.25q-6.55 11.7-14.4 12.25-7.8 0.5-17.45-9.75l-7.5 7.5q6.55 12.05 18.7 9.55 12.25-2.5 21.8-18.3z"/>
 <path d="m12.49 33.975 7.5-7.5-22.75-22.7 9.75-9.8v-30h-25l-10 10h25l0.1 27.55-8.55 8.5 24 24z"/>
 <path d="m18.74 25.325q-6.486-1.216-4.75 5 2.924-3.894 5.95-3.8l8.8-8.8v-15l-10 10z"/>
 <path d="m-7.13 51.525 7.5 7.5 7.5-7.5-7.5-7.5z"/>
 <path d="m41.66-36-7.5 7.5 57.5 62.5 7.5-7.5z"/>
 <path d="m94.16 31.5 5-5 10 10 7.15-7.15-11.3-11.2-7 7.1-1 1q-3.183-1.742-3.85 0-0.916 1.293 0 6.25z"/>
 <path d="m44.16 16.5-10 10v25l10-10z"/>
 <path d="m96.66-26 10-10h-30l-10 10z"/>
 <path d="m136.35-36-10 10v60l10-10v-50h30l10-10z"/>
 <path d="m182.65-29.7-6.3 6.3v-12.6h-15q2.75 6.15-5 10h10v15l17.5-17.5z"/>
 <path d="m156.35 34h-15l10-10h-15v-10q-3.85 7.75-10 5v15h12.55l-9.95 10h17.4z"/>
 <path d="m203.46-36-10 10v60l10-10z"/>
 <path d="m203.51-33.7h15l10-10h-17.4l-17.65 17.7v7.3q5.4-4.35 10-2.75v-12.25z"/>
 <path d="m203.11 21.9q-0.375 0.363-1.15 1.15-6.261 1.099-8.5-3.8v14.75l10-10 10 10 7.15-7.15-11.3-11.2-5.85 5.9q-0.04 0.029-0.35 0.35z"/>
 <path d="m250.12-36.025-7.5 7.5 22.55 22.55h-14.4l-17.6 17.65v22.35h40l10-10h-40v-20h30l8.5-8.5z"/>
 <path d="m268.17-46.025 10-10h-30l-10 10z"/>
</svg>
