<?xml version="1.0" ?>
<svg viewBox="0 -61.32500457763672 729.1375122070312 159.25296020507812" stroke-linejoin="round" stroke-linecap="round" fill="black" xmlns="http://www.w3.org/2000/svg"><g><g><g><g><path d="M 7.5 -35 l -7.5 7.5 57.5 62.5 7.5 -7.5 -57.5 -62.5 z"></path><path d="M 77.5 25 l -15 0 q -7 -2.95 -7.6 0 q -1.65 2.7 2.6 10 l 10 0 l 0 15 l 10 -10 l 0 -15 z"></path><path d="M 37.5 -27.5 l 20 20 l 7.5 -7.5 l -20 -20 l -7.5 7.5 z"></path><path d="M 17.5 52.5 l 7.5 7.5 l 7.5 -7.5 l -7.5 -7.5 l -7.5 7.5 z"></path></g><g><path d="M 135.078125 -35.05 l -50 0 l -10 10 l 0 27 l 33.1 33.1 l 7.5 -7.5 l -30.6 -30.6 l 0 -22 l 40 0 l 10 -10 z"></path><g><path d="M 157.578125 -27.550003051757812 l -1.2 -1.2 l -7.5 7.5 l -13.8 -13.8 q -8.65 2.75 -10 10 l 5 0 l 12.5 12.5 l 15 -15 z"></path></g><g><path d="M 114.478125 26.350003051757813 q -6.486 -1.216 -4.75 5 q 2.924 -3.894 5.95 -3.8 l 8.8 -8.8 l 0 -15 l -10 10 l 0 12.6 z"></path></g></g><g><path d="M 194.26874923706055 -35 l -7.5 7.5 57.5 62.5 7.5 -7.5 -57.5 -62.5 z"></path><path d="M 186.76874923706055 -27.5 l -15.05 0 l -10 10 l 17.45 0 l 8.75 -8.8 q 6.9 0.2 3.8 -6.15 l -4.95 4.95 z"></path><path d="M 250.56874923706056 26.3 q -4.2 -0.65 -6.3 2.7 q -0.8 1 0 6 l 6.3 -6.3 l 0 19.95 l 10 -10.1 l 0 -22.35 l -10 10.1 z"></path></g><g><path d="M 287.54063720703124 -35.025 l -7.5 7.5 l 22.55 22.55 l -14.4 0 l -17.6 17.65 l 0 22.35 l 40 0 l 10 -10 l -40 0 l 0 -20 l 30 0 l 8.5 -8.5 l -31.55 -31.55 z"></path><g><path d="M 275.7406372070312 -46.8250015258789 l 11.8 11.8 l -5 5 q 7.681 1.687 7.1 -0.5 l -0.95 -3.35 l 7.05 -7.05 l -13 -12.9 z"></path></g><g><path d="M 322.39063720703126 46.8250015258789 l -11.8 -11.8 l 10 -10 l -11.15 0 q 3.75 5.2 -5.8 10 l 4.65 0 l -5.9 5.9 l 13 12.9 l 7 -7 z"></path></g><path d="M 283.63508319854736 86.32500457763672 q 0.75 5.3 5.4 8.4 q 4.9 3.3 12.95 3.2 l 7.5 -7.5 q -14.9 -0.4 -18.6 -8.55 q -3.75 -8.2 7.45 -16.9 l -1.25 -1.15 q -7.35 5.2 -10.9 11.4 q -3.3 5.85 -2.55 11.1 z"></path></g><g><path d="M 349.112548828125 -11.15 l -10 10 l 0 -33.85 l -10 10 l 0 36.2 l 10 -9.95 l 0 33.75 l 10 -10 l 0 -36.15 z"></path><g><path d="M 369.112548828125 35 l -15 0 l 10 -10 l -15 0 l 0 -10 q -3.85 7.75 -10 5 l 0 15 l 12.55 0 l -9.95 10 l 17.4 0 l 10 -10 z"></path></g></g><g><path d="M 393.1969223022461 25 l -10 10 l 50 0 l 10 -10 l 0 -35 l -10 10 l -15 0 l 0 -35 l -10 10 l 0 35 l 17.35 0 l 7.65 -7.6 l 0 22.6 l -40 0 z"></path><g><path d="M 391.8969223022461 38.9 l -6.3 6.3 l 0 -10.2 l 13.5 0 q -5.808 -4.7 -0.35 -10 l -5.55 0 l -17.6 17.6 l 0 15 l 17.5 -17.5 l -1.2 -1.2 z"></path></g><path d="M 401.89692306518555 -52.5 l 7.5 7.5 l 7.5 -7.5 l -7.5 -7.5 l -7.5 7.5 z"></path><path d="M 401.89692306518555 75.0999984741211 l 7.5 7.5 l 7.5 -7.5 l -7.5 -7.5 l -7.5 7.5 z"></path></g><g><path d="M 448.21881103515625 -35 l -7.5 7.5 57.5 62.5 7.5 -7.5 -57.5 -62.5 z"></path><path d="M 504.51881103515626 26.3 q -4.2 -0.65 -6.3 2.7 q -0.8 1 0 6 l 6.3 -6.3 l 0 19.95 l 10 -10.1 l 0 -22.35 l -10 10.1 z"></path></g><g><path d="M 510.6406585693359 -35.025 l -9.9 9.95 l 47.35 58.35 l 0.05 0 l 1.4 1.75 l 7.5 -7.5 l -42.7 -52.55 l 52.05 0 l 10 -10 l -65.75 0 z"></path><g><path d="M 573.890658569336 -35.025001525878906 l -7.65 0 q 2.55 4.45 -5 10 l 5 0 l 15.85 -15.9 l -11.8 -11.7 l 7.5 -7.5 l -1.2 -1.2 l -14.5 14.5 l 11.8 11.8 z"></path></g><g><path d="M 515.8406585693359 51.37500152587891 l 1.2 1.2 l 8.7 -8.7 l 15.05 0 l 8.75 -8.85 q 1.75 -3.2 4.85 -7.2 q -5.7 -0.35 -6 6.05 l -15.05 0 l -17.5 17.5 z"></path></g></g><g><path d="M 580.5499877929688 35 l 10 -10 l 0 -20 l 20 0 l 10 -10 l 0 -30 l -30 0 l -10 10 l 30 0 l 0 20 l -20 0 l -10 10 l 0 30 z"></path><g><path d="M 580.5499877929688 20 l 0 15 l 15 0 l 10 -10 l -15 0 l 0 -10 q -3.874 7.753 -10 5 z"></path></g><path d="M 610.5499877929688 70 l 0 -25 l -20 20 l 1.2 1.2 l 8.8 -8.8 l 0 22.6 l 10 -10 z"></path></g><g><path d="M 640.6281127929688 -35 l -10 10 l 0 60 l 10 -10 l 0 -60 z"></path><g><path d="M 640.6781127929687 -32.7 l 15 0 l 10 -10 l -17.4 0 l -17.65 17.7 l 0 7.3 q 5.4 -4.35 10 -2.75 l 0 -12.25 z"></path></g><g><path d="M 640.2781127929687 22.9 q -0.375 0.363 -1.15 1.15 q -6.261 1.099 -8.5 -3.8 l 0 14.75 l 10 -10 l 10 10 l 7.15 -7.15 l -11.3 -11.2 l -5.85 5.9 q -0.04 0.029 -0.35 0.35 z"></path></g></g><g><path d="M 684.187523651123 -25 l 34.95 0 l 10 -10 l -50 0 l -10 10 l 25 25 l 0 35 l 10 -10 l 0 -30.05 l -19.95 -19.95 z"></path><g><path d="M 704.137523651123 25 l 0 -7.3 q -4.546 5.888 -10 3.05 l 0 11.95 l -15.05 0 l -17.5 17.5 l 1.2 1.2 l 8.7 -8.7 l 15 0 l 17.65 -17.7 z"></path></g><path d="M 705.3625259399414 -45 l 10 -10 l -30 0 l -10 10 l 30 0 z"></path></g></g></g></g></svg>